<?xml version="1.0" encoding="UTF-8" standalone="no"?>
<svg
   xmlns:dc="http://purl.org/dc/elements/1.1/"
   xmlns:cc="http://creativecommons.org/ns#"
   xmlns:rdf="http://www.w3.org/1999/02/22-rdf-syntax-ns#"
   xmlns:svg="http://www.w3.org/2000/svg"
   xmlns="http://www.w3.org/2000/svg"
   xmlns:sodipodi="http://sodipodi.sourceforge.net/DTD/sodipodi-0.dtd"
   xmlns:inkscape="http://www.inkscape.org/namespaces/inkscape"
   width="1200pt"
   height="1200pt"
   version="1.1"
   viewBox="0 0 1200 1200"
   id="svg12"
   sodipodi:docname="dotnet-releaser.svg"
   inkscape:version="0.92.4 (5da689c313, 2019-01-14)"
   inkscape:export-filename="C:\code\dotnet-releaser\img\dotnet-releaser.png"
   inkscape:export-xdpi="32.640198"
   inkscape:export-ydpi="32.640198">
  <metadata
     id="metadata18">
    <rdf:RDF>
      <cc:Work
         rdf:about="">
        <dc:format>image/svg+xml</dc:format>
        <dc:type
           rdf:resource="http://purl.org/dc/dcmitype/StillImage" />
      </cc:Work>
    </rdf:RDF>
  </metadata>
  <defs
     id="defs16" />
  <sodipodi:namedview
     pagecolor="#ffffff"
     bordercolor="#666666"
     borderopacity="1"
     objecttolerance="10"
     gridtolerance="10"
     guidetolerance="10"
     inkscape:pageopacity="0"
     inkscape:pageshadow="2"
     inkscape:window-width="3480"
     inkscape:window-height="1830"
     id="namedview14"
     showgrid="false"
     inkscape:zoom="0.59"
     inkscape:cx="806.83668"
     inkscape:cy="928.39679"
     inkscape:window-x="0"
     inkscape:window-y="0"
     inkscape:window-maximized="0"
     inkscape:current-layer="g10" />
  <g
     id="g10"
     style="fill:#12b0fb">
    <path
       d="m 1063.8,739.41 100.94,-35.293 v -207.53 l -100.94,-35.293 -13.59,-32.648 c -7.7656,-17.648 -14.648,-35.293 -23.824,-57 l 46.059,-97.234 -16.41,-16.59 c -56.648,-56.648 -56.648,-56.648 -113.82,-113.12 l -16.59,-16.41 -96.176,45.352 -58.059,-24.18 -31.941,-13.234 -36,-100.94 h -206.82 l -35.293,100.94 -31.941,13.41 -58.766,24.004 -96.18,-46.059 -16.59,16.41 c -57.176,56.469 -57.176,56.469 -113.82,113.12 l -16.41,16.59 46.062,96.883 c -9.1758,21.707 -16.059,38.469 -23.824,57 l -13.59,33 -100.94,36 v 206.82 l 100.94,35.293 13.41,32.117 24.004,58.59 -46.059,96 16.41,17.648 c 56.648,57.176 56.648,57.176 113.82,113.82 l 16.59,16.41 96.176,-46.941 57.352,24 32.293,13.41 35.293,100.94 h 207.88 l 35.293,-100.94 32.293,-13.41 58.414,-24.004 96.531,46.059 16.59,-16.41 c 57.176,-56.64799 57.176,-56.64799 113.82,-113.81999 l 16.41,-17.648 -46.414,-95.117 24,-57.531 z M 600.03,930.18 c -65.344,0 -129.22,-19.379 -183.55,-55.688 -54.332,-36.305 -96.676,-87.91 -121.67,-148.29 -25,-60.375 -31.531,-126.8 -18.77,-190.89 12.762,-64.086 44.242,-122.95 90.461,-169.14 46.219,-46.195 105.1,-77.645 169.19,-90.371 64.09,-12.726 130.52,-6.1602 190.88,18.871 60.36,25.0312 111.94,67.398 148.22,121.75 36.277,54.348 55.621,118.24 55.586,183.58 -0.14062,87.555 -34.996,171.48 -96.922,233.38 -61.93,61.895 -145.88,96.703 -233.43,96.797 z"
       id="path2"
       inkscape:connector-curvature="0" />
    <path
       d="m 493.06,696.53 c -3.7383,0.0117 -7.3828,-1.1641 -10.41,-3.3555 l -106.94,-79.059 c -4.5117,-3.2969 -7.1953,-8.5312 -7.2383,-14.117 -0.0117,-5.6484 2.6758,-10.961 7.2383,-14.293 l 106.94,-79.059 c 3.7656,-2.7852 8.4844,-3.9609 13.117,-3.2656 4.6367,0.69531 8.8008,3.2031 11.586,6.9688 2.7852,3.7695 3.9609,8.4883 3.2656,13.121 -0.69531,4.6328 -3.2031,8.8008 -6.9688,11.586 l -88.234,64.941 88.234,64.766 c 3.7695,2.7812 6.2812,6.9492 6.9766,11.582 0.69531,4.6367 -0.48438,9.3555 -3.2734,13.121 -3.3672,4.4961 -8.6758,7.1172 -14.293,7.0625 z"
       id="path4"
       inkscape:connector-curvature="0"
       style="fill:#ff6600" />
    <path
       d="m 706.94,696.53 c -5.6172,0.0547 -10.926,-2.5664 -14.293,-7.0625 -2.7891,-3.7656 -3.9688,-8.4844 -3.2734,-13.121 0.69531,-4.6328 3.207,-8.8008 6.9766,-11.582 l 88.234,-64.766 -88.234,-64.941 c -5.0742,-3.75 -7.7617,-9.9258 -7.0508,-16.195 0.71094,-6.2734 4.7148,-11.688 10.5,-14.207 5.7852,-2.5195 12.477,-1.7617 17.551,1.9922 l 106.94,79.059 c 4.5625,3.332 7.25,8.6445 7.2383,14.293 -0.043,5.5859 -2.7266,10.82 -7.2383,14.117 l -106.94,79.059 c -3.0273,2.1914 -6.6719,3.3672 -10.41,3.3555 z"
       id="path6"
       inkscape:connector-curvature="0"
       style="fill:#ff6600" />
    <path
       d="m 536.12,774.35 c -5.8672,-0.0273 -11.34,-2.9727 -14.594,-7.8555 -3.2578,-4.8828 -3.8711,-11.066 -1.6406,-16.496 l 127.59,-313.41 h -0.004 c 2.6133,-5.457 7.8359,-9.1953 13.84,-9.9062 6.0078,-0.71094 11.961,1.6992 15.773,6.3945 3.8164,4.6914 4.9609,11.012 3.0352,16.746 l -127.59,313.41 c -1.3086,3.2852 -3.5742,6.1016 -6.5,8.082 -2.9258,1.9805 -6.3789,3.0391 -9.9141,3.0352 z"
       id="path8"
       inkscape:connector-curvature="0"
       style="fill:#d40000" />
    <path
       style="fill:#d40000;stroke-width:3;stroke-miterlimit:4;stroke-dasharray:none"
       inkscape:connector-curvature="0"
       id="path828"
       d="m 536.12,774.35 c -5.8672,-0.0273 -11.34,-2.9727 -14.594,-7.8555 -3.2578,-4.8828 -3.8711,-11.066 -1.6406,-16.496 l 127.59,-313.41 h -0.004 c 2.6133,-5.457 7.8359,-9.1953 13.84,-9.9062 6.0078,-0.71094 11.961,1.6992 15.773,6.3945 3.8164,4.6914 4.9609,11.012 3.0352,16.746 l -127.59,313.41 c -1.3086,3.2852 -3.5742,6.1016 -6.5,8.082 -2.9258,1.9805 -6.3789,3.0391 -9.9141,3.0352 z" />
    <path
       d="m 536.12,774.35 c -5.8672,-0.0273 -11.34,-2.9727 -14.594,-7.8555 -3.2578,-4.8828 -3.8711,-11.066 -1.6406,-16.496 l 127.59,-313.41 h -0.004 c 2.6133,-5.457 7.8359,-9.1953 13.84,-9.9062 6.0078,-0.71094 11.961,1.6992 15.773,6.3945 3.8164,4.6914 4.9609,11.012 3.0352,16.746 l -127.59,313.41 c -1.3086,3.2852 -3.5742,6.1016 -6.5,8.082 -2.9258,1.9805 -6.3789,3.0391 -9.9141,3.0352 z"
       id="path830"
       inkscape:connector-curvature="0"
       style="fill:#c83737;stroke-width:3;stroke-miterlimit:4;stroke-dasharray:none" />
  </g>
</svg>
