<?xml version="1.0" encoding="UTF-8" standalone="no"?>
<svg
   xmlns:dc="http://purl.org/dc/elements/1.1/"
   xmlns:cc="http://creativecommons.org/ns#"
   xmlns:rdf="http://www.w3.org/1999/02/22-rdf-syntax-ns#"
   xmlns:svg="http://www.w3.org/2000/svg"
   xmlns="http://www.w3.org/2000/svg"
   xmlns:sodipodi="http://sodipodi.sourceforge.net/DTD/sodipodi-0.dtd"
   xmlns:inkscape="http://www.inkscape.org/namespaces/inkscape"
   width="1200pt"
   height="1200pt"
   version="1.1"
   viewBox="0 0 1200 1200"
   id="svg12"
   sodipodi:docname="dotnet-releaser.svg"
   inkscape:version="0.92.4 (5da689c313, 2019-01-14)"
   inkscape:export-filename="C:\code\dotnet-releaser\img\dotnet-releaser.png"
   inkscape:export-xdpi="16.320097"
   inkscape:export-ydpi="16.320097">
  <metadata
     id="metadata18">
    <rdf:RDF>
      <cc:Work
         rdf:about="">
        <dc:format>image/svg+xml</dc:format>
        <dc:type
           rdf:resource="http://purl.org/dc/dcmitype/StillImage" />
        <dc:title />
      </cc:Work>
    </rdf:RDF>
  </metadata>
  <defs
     id="defs16" />
  <sodipodi:namedview
     pagecolor="#ffffff"
     bordercolor="#666666"
     borderopacity="1"
     objecttolerance="10"
     gridtolerance="10"
     guidetolerance="10"
     inkscape:pageopacity="0"
     inkscape:pageshadow="2"
     inkscape:window-width="3840"
     inkscape:window-height="2054"
     id="namedview14"
     showgrid="false"
     inkscape:zoom="0.59"
     inkscape:cx="508.32609"
     inkscape:cy="1265.5172"
     inkscape:window-x="-11"
     inkscape:window-y="-11"
     inkscape:window-maximized="1"
     inkscape:current-layer="g10" />
  <g
     id="g10"
     style="fill:#12b0fb">
    <path
       d="m 1063.8,739.41 100.94,-35.293 v -207.53 l -100.94,-35.293 -13.59,-32.648 c -7.7656,-17.648 -14.648,-35.293 -23.824,-57 l 46.059,-97.234 -16.41,-16.59 c -56.648,-56.648 -56.648,-56.648 -113.82,-113.12 l -16.59,-16.41 -96.176,45.352 -58.059,-24.18 -31.941,-13.234 -36,-100.94 h -206.82 l -35.293,100.94 -31.941,13.41 -58.766,24.004 -96.18,-46.059 -16.59,16.41 c -57.176,56.469 -57.176,56.469 -113.82,113.12 l -16.41,16.59 46.062,96.883 c -9.1758,21.707 -16.059,38.469 -23.824,57 l -13.59,33 -100.94,36 v 206.82 l 100.94,35.293 13.41,32.117 24.004,58.59 -46.059,96 16.41,17.648 c 56.648,57.176 56.648,57.176 113.82,113.82 l 16.59,16.41 96.176,-46.941 57.352,24 32.293,13.41 35.293,100.94 h 207.88 l 35.293,-100.94 32.293,-13.41 58.414,-24.004 96.531,46.059 16.59,-16.41 c 57.176,-56.64799 57.176,-56.64799 113.82,-113.81999 l 16.41,-17.648 -46.414,-95.117 24,-57.531 z M 600.03,930.18 c -65.344,0 -129.22,-19.379 -183.55,-55.688 -54.332,-36.305 -96.676,-87.91 -121.67,-148.29 -25,-60.375 -31.531,-126.8 -18.77,-190.89 12.762,-64.086 44.242,-122.95 90.461,-169.14 46.219,-46.195 105.1,-77.645 169.19,-90.371 64.09,-12.726 130.52,-6.1602 190.88,18.871 60.36,25.0312 111.94,67.398 148.22,121.75 36.277,54.348 55.621,118.24 55.586,183.58 -0.14062,87.555 -34.996,171.48 -96.922,233.38 -61.93,61.895 -145.88,96.703 -233.43,96.797 z"
       id="path2"
       inkscape:connector-curvature="0" />
    <g
       aria-label="&lt;/&gt;"
       transform="matrix(0.71645509,0,0,1.3957609,-3.0333253e-6,6.7414973)"
       style="font-style:normal;font-variant:normal;font-weight:900;font-stretch:normal;font-size:557.46868896px;line-height:72.58705902px;font-family:Arial;-inkscape-font-specification:'Arial Heavy';letter-spacing:0px;word-spacing:0px;fill:#000000;fill-opacity:1;stroke:none;stroke-width:2.90348244"
       id="text844">
      <path
         d="M 730.80727,593.93873 421.31416,465.18742 V 384.61578 L 730.80727,256.13667 v 96.63153 l -188.09124,72.4056 188.09124,72.6778 z"
         style="fill:#ff6600;stroke-width:2.90348244"
         id="path4553"
         inkscape:connector-curvature="0" />
      <path
         d="m 859.84353,237.84295 h 58.43639 L 814.8924,612.23245 h -57.87453 z"
         style="fill:#ff2a2a;stroke-width:2.81056976"
         id="path4555"
         inkscape:connector-curvature="0" />
      <path
         d="M 944.21325,593.93873 1253.7064,465.18742 V 384.61578 L 944.21325,256.13667 v 96.63153 l 188.09125,72.4056 -188.09125,72.6778 z"
         style="fill:#ff6600;stroke-width:2.90348244"
         id="path4557"
         inkscape:connector-curvature="0" />
    </g>
  </g>
</svg>
